<svg>
	
				<symbol id="facebook" width="10" height="20" viewBox="0 0 10 20" fill="none" xmlns="http://www.w3.org/2000/svg">
				<path d="M6.25 6.875V4.375C6.25 3.685 6.81 3.125 7.5 3.125H8.75V0H6.25C4.17875 0 2.5 1.67875 2.5 3.75V6.875H0V10H2.5V20H6.25V10H8.75L10 6.875H6.25Z" fill="#635854"/>
				</symbol>

				<symbol id="instagram" width="20" height="20" viewBox="0 0 20 20" fill="none" xmlns="http://www.w3.org/2000/svg">
				<path d="M13.75 0H6.25C2.79875 0 0 2.79875 0 6.25V13.75C0 17.2013 2.79875 20 6.25 20H13.75C17.2013 20 20 17.2013 20 13.75V6.25C20 2.79875 17.2013 0 13.75 0ZM18.125 13.75C18.125 16.1625 16.1625 18.125 13.75 18.125H6.25C3.8375 18.125 1.875 16.1625 1.875 13.75V6.25C1.875 3.8375 3.8375 1.875 6.25 1.875H13.75C16.1625 1.875 18.125 3.8375 18.125 6.25V13.75Z" fill="#635854"/>
				<path d="M10 5C7.23875 5 5 7.23875 5 10C5 12.7613 7.23875 15 10 15C12.7613 15 15 12.7613 15 10C15 7.23875 12.7613 5 10 5ZM10 13.125C8.2775 13.125 6.875 11.7225 6.875 10C6.875 8.27625 8.2775 6.875 10 6.875C11.7225 6.875 13.125 8.27625 13.125 10C13.125 11.7225 11.7225 13.125 10 13.125Z" fill="#635854"/>
				<path d="M15.375 5.29124C15.7429 5.29124 16.0412 4.99295 16.0412 4.62499C16.0412 4.25703 15.7429 3.95874 15.375 3.95874C15.007 3.95874 14.7087 4.25703 14.7087 4.62499C14.7087 4.99295 15.007 5.29124 15.375 5.29124Z" fill="#635854"/>
				</symbol>

				<symbol id="twitter" width="20" height="18" viewBox="0 0 20 18" fill="none" xmlns="http://www.w3.org/2000/svg">
				<path d="M20 2.79875C19.2563 3.125 18.4637 3.34125 17.6375 3.44625C18.4875 2.93875 19.1363 2.14125 19.4412 1.18C18.6488 1.6525 17.7738 1.98625 16.8412 2.1725C16.0887 1.37125 15.0162 0.875 13.8462 0.875C11.5763 0.875 9.74875 2.7175 9.74875 4.97625C9.74875 5.30125 9.77625 5.61375 9.84375 5.91125C6.435 5.745 3.41875 4.11125 1.3925 1.6225C1.03875 2.23625 0.83125 2.93875 0.83125 3.695C0.83125 5.115 1.5625 6.37375 2.6525 7.1025C1.99375 7.09 1.3475 6.89875 0.8 6.5975C0.8 6.61 0.8 6.62625 0.8 6.6425C0.8 8.635 2.22125 10.29 4.085 10.6712C3.75125 10.7625 3.3875 10.8062 3.01 10.8062C2.7475 10.8062 2.4825 10.7913 2.23375 10.7362C2.765 12.36 4.2725 13.5538 6.065 13.5925C4.67 14.6838 2.89875 15.3412 0.98125 15.3412C0.645 15.3412 0.3225 15.3263 0 15.285C1.81625 16.4563 3.96875 17.125 6.29 17.125C13.835 17.125 17.96 10.875 17.96 5.4575C17.96 5.27625 17.9538 5.10125 17.945 4.9275C18.7588 4.35 19.4425 3.62875 20 2.79875Z" fill="#635854"/>
				</symbol>

				<symbol id="youtube" width="20" height="14" viewBox="0 0 20 14" fill="none" xmlns="http://www.w3.org/2000/svg">
				<path d="M19.15 1.45C18.6075 0.485 18.0188 0.3075 16.82 0.24C15.6225 0.15875 12.6112 0.125 10.0025 0.125C7.38875 0.125 4.37625 0.15875 3.18 0.23875C1.98375 0.3075 1.39375 0.48375 0.84625 1.45C0.2875 2.41375 0 4.07375 0 6.99625C0 6.99875 0 7 0 7C0 7.0025 0 7.00375 0 7.00375V7.00625C0 9.91625 0.2875 11.5887 0.84625 12.5425C1.39375 13.5075 1.9825 13.6825 3.17875 13.7638C4.37625 13.8338 7.38875 13.875 10.0025 13.875C12.6112 13.875 15.6225 13.8337 16.8212 13.765C18.02 13.6837 18.6087 13.5088 19.1513 12.5438C19.715 11.59 20 9.9175 20 7.0075C20 7.0075 20 7.00375 20 7.00125C20 7.00125 20 6.99875 20 6.9975C20 4.07375 19.715 2.41375 19.15 1.45ZM7.5 10.75V3.25L13.75 7L7.5 10.75Z" fill="#635854"/>
				</symbol>


</svg>